<svg xmlns="http://www.w3.org/2000/svg" width="128" height="128" viewBox="0 0 128 128">
    <g fill="none" fill-rule="evenodd">
        <g fill="#008D61">
            <g>
                <path d="M63.444 9.514l10.092 10.269-.209.063 27.364 27.356 6.847 6.845.261-.627 2.02 2.022 8.324 8.334c-2.723 2.641-5.395 5.335-8.184 7.9-1.752 1.61-2.83 3.458-3.606 5.744-4.993 14.706-15.024 24.355-29.76 29.209-1.353.445-2.701 1.26-3.739 2.234-3.071 2.884-5.986 5.934-8.905 8.862l-10.108-10.17.637-.26-34.382-34.34-.257.783-2.248-2.25L9.514 63.4c3.119-3.054 6.31-6.103 9.395-9.254.77-.786 1.424-1.833 1.755-2.879 4.934-15.605 15.175-25.846 30.788-30.764 1.042-.329 2.073-1.004 2.861-1.772 3.122-3.043 6.145-6.186 9.131-9.218zm8.224 98.613H56.067l7.689 7.764 7.912-7.764zM20.625 75.168l31.456 31.472c-13.56-2.418-28.276-16.249-31.456-31.472zm52.736-20.853l-13.868 13.87-5.445-4.538c-1.005-.838-2.5-.702-3.337.303-.837 1.005-.701 2.499.304 3.336l7.107 5.923c.94.784 2.325.721 3.191-.145l15.399-15.398c.925-.925.925-2.425 0-3.35-.926-.926-2.426-.926-3.35 0zM19.265 56.11l-7.586 7.685 7.586 7.798V56.11zm89.007-.282V71.41l7.713-7.687-7.713-7.896zm-33.01-35.384c14.278 3.078 28.211 16.174 31.697 31.618L75.262 20.443zm-11.464-9.084l-7.921 7.763h15.752l-7.831-7.763z" transform="translate(-616 -200) translate(616 200)"/>
            </g>
        </g>
    </g>
</svg>
