<svg xmlns="http://www.w3.org/2000/svg" width="200" height="36" viewBox="0 0 200 36">
    <g fill="none" fill-rule="evenodd">
        <g>
            <g>
                <g>
                    <path fill="#D8211D" d="M0 19.352h21.281C37.431 9.068 48.698 3.73 75.826.242v-.23C55.672-.262 26.689 4.128 0 19.352" transform="translate(-580 -88) translate(580 88) translate(0 .113)"/>
                    <path fill="#008D61" d="M119.03 13.702v12.974c0 .606.155 1.835 1.852 2.305.96.265 2.926.38 4.556.38s3.595-.115 4.558-.38c1.696-.47 1.85-1.7 1.85-2.305V13.702h6.311v14.133c0 2.158-.713 5.027-4.24 6.256-1.816.632-3.335.817-8.077.826h-.402c-5.059 0-6.612-.176-8.477-.826-3.53-1.229-4.243-4.098-4.243-6.256V13.702h6.312zm72.013-.603c5.316 0 8.957 1.878 8.957 6.94v7.935c0 5.061-3.64 6.942-8.957 6.942h-8.758c-5.318 0-8.957-1.88-8.957-6.942V20.04c0-5.062 3.64-6.94 8.957-6.94zm-134.474.602v5.651h-9.496v15.04h-6.917v-15.04H30.66v-5.651h25.91zm25.21 0v4.536H64.746v3.32H81.78v4.475H64.745v3.32H81.78v5.032H60.323c-.868 0-1.56-.73-1.56-1.627V15.328c0-.898.692-1.628 1.56-1.628H81.78zm23.185 0c2.596 0 4.766 2.34 4.766 6.543 0 4.204-2.17 6.545-4.766 6.545h-.429l6.25 7.595h-7.546l-6.195-7.595h-5.263v7.595h-5.984V15.328c0-.897.696-1.626 1.56-1.626zm46.186 0l4.592 13.246 4.596-13.246h7.404c.864 0 1.565.73 1.565 1.627v19.056h-5.812V20.773l-.12.099-4.777 13.512h-5.71l-4.778-13.512-.118-.099v13.611h-5.814V15.328c0-.897.702-1.627 1.565-1.627h7.407zm36.012 4.877h-.997c-1.153 0-1.642.002-2.005.002h-.14c-2.886 0-4.405.59-4.405 2.592v5.669c0 2.003 1.519 2.592 4.405 2.592l1.193.001h4.094c2.887 0 4.405-.59 4.405-2.593v-5.67c0-2.002-1.518-2.59-4.405-2.59-.385 0-.838-.003-2.145-.003zm-84.68-.264H91.782v3.861h10.702c.48 0 .657-.07.862-.252.269-.24.42-.565.42-1.679 0-1.113-.151-1.437-.42-1.677-.205-.184-.382-.253-.862-.253z" transform="translate(-580 -88) translate(580 88) translate(0 .113)"/>
                </g>
            </g>
        </g>
    </g>
</svg>
