<svg xmlns="http://www.w3.org/2000/svg" width="128" height="128" viewBox="0 0 128 128">
    <g fill="none" fill-rule="evenodd">
        <g fill="#008D61">
            <g>
                <path d="M110.565 40.488c6.529 6.881 9.695 15.183 9.316 24.679-.508 12.754-6.222 22.66-17.3 28.989-12.718 7.264-25.348 6.286-37.509-1.686-.788-.517-1.478-.642-2.409-.602-2.914.122-5.836.064-8.755.065-10.216.004-20.432-.008-30.648.019-1.228.003-2.329-.158-3.154-1.15-.175-.21-.427-.5-.392-.712.072-.434.525-.364.86-.38.409-.02.818-.012 1.227-.012h18.74l20.72-.001c-.599-1.484-1.668-1.279-2.614-1.28-11.15-.01-22.3-.007-33.451-.008-2.102 0-4.203.01-6.305-.005-.462-.003-.949-.01-1.381-.149-.791-.255-1.365-.983-1.29-1.68.072-.69.979-.387 1.51-.387 12.727-.017 25.454-.008 38.18-.017.678 0 1.384.16 2.11-.215-.477-1.252-1.542-1.062-2.482-1.063-8.581-.012-17.163-.008-25.745-.01-4.378 0-8.755 0-13.133-.002-.467 0-.935.004-1.4-.032-.954-.072-1.638-.714-1.636-1.536.004-1.092 1.073-.634 1.65-.635 12.61-.033 25.22-.016 37.829-.05.736-.002 2.123.45 2.117-.416-.008-1.214-1.434-.833-2.29-.835-12.844-.024-25.687-.012-38.53-.023-.908 0-1.91.217-2.578-.697-.242-.331-.5-.704-.354-1.126.155-.448.58-.427.957-.425h.093c.816-.011 1.633.02 2.45.02 12.202.002 24.403.012 36.604-.026.628-.002 1.817.574 1.833-.52.014-.912-1.169-.73-1.89-.73-13.076-.015-26.153-.01-39.23-.01-.409 0-.822.05-1.224 0-.886-.11-1.085-.861-1.182-1.536-.13-.909.696-.778 1.215-.849.632-.086 1.281-.055 1.923-.056 12.26-.003 24.519.004 36.779-.027.736-.002 2.047.437 2.08-.56.035-1.007-1.322-.645-2.015-.65-5.947-.036-11.893.04-17.841.044-4.783.003-9.566-.06-14.349-.068-2.27-.003-4.54.064-6.809.081-.403.003-.824-.022-1.206-.136-.73-.217-.982-.833-.92-1.51.063-.721.717-.65 1.223-.683.523-.035 1.05-.016 1.576-.016h36.428c.525 0 1.06.058 1.573-.02.549-.084 1.526.384 1.501-.607-.023-.884-.968-.65-1.56-.65-12.842-.016-25.687-.013-38.53-.016-.583 0-1.167-.013-1.75-.03-.704-.022-1.053-.416-1.112-1.097-.068-.78.421-1.025 1.072-1.07.348-.023.699-.029 1.05-.03h.525c12.55-.001 25.102.008 37.654-.022.736-.002 2.079.417 2.074-.579-.006-1.197-1.382-.663-2.134-.665-12.668-.038-25.336-.012-38.004-.055-.947-.003-2.596.627-2.537-1.178.054-1.624 1.602-.998 2.505-1 12.201-.043 24.402-.028 36.603-.027.525 0 1.057.049 1.575-.016.628-.078 1.704.332 1.707-.628.002-.959-1.081-.631-1.704-.632-12.727-.023-25.453-.004-38.18-.047-.904-.003-2.45.619-2.506-1.002-.061-1.809 1.582-1.17 2.532-1.174 12.727-.042 25.453-.019 38.18-.051.704-.002 1.978.478 1.974-.677-.002-.938-1.223-.574-1.91-.575-12.668-.023-25.336-.005-38.004-.045-.865-.003-2.327.568-2.412-.904-.1-1.745 1.484-1.28 2.488-1.283 12.61-.027 25.22-.018 37.83-.017l.817.008c.136-.001.272-.005.408-.013.556-.036 1.368.128 1.363-.691-.006-.907-.872-.573-1.37-.574-12.493-.022-24.986-.019-37.479-.02-.7 0-1.403.028-2.101-.014-.605-.036-1.429.108-1.37-.888.049-.83.39-1.388 1.419-1.376 3.442.043 6.887.004 10.33.007 9.92.007 19.84.021 29.76.03.349 0 .702-.006 1.047-.06.365-.055.697-.237.65-.668-.034-.327-.333-.471-.636-.492-.581-.04-1.165-.06-1.748-.06-12.023-.003-24.045-.001-36.067-.002l-1.14.004c-.379-.001-.758-.01-1.136-.038-.552-.042-1.3.006-1.283-.831.014-.742.36-1.38 1.204-1.493.576-.076 1.164-.083 1.746-.083 12.61-.005 25.22-.004 37.829-.004.408 0 .818.019 1.225-.006.617-.038 1.546.12 1.532-.727-.015-.965-.997-.535-1.524-.536-12.844-.027-25.687-.007-38.53-.044-.663-.003-1.902.605-1.932-.604-.026-1.075.958-1.604 2.123-1.601 5.838.015 11.676-.001 17.514-.002 7.297-.003 14.594-.001 21.892-.002.116 0 .234.013.35 0 .712-.082 1.89.246 1.901-.692.012-1.123-1.188-.567-1.814-.568-12.784-.037-25.57-.02-38.354-.043-.582 0-1.62.4-1.678-.324-.065-.805.648-1.622 1.607-1.813.62-.123 1.278-.083 1.918-.083 12.844-.004 25.687 0 38.53-.006.955 0 2.008.18 2.687-1.287H38.976c-7.005 0-14.01.011-21.016-.019-.618-.003-1.685.392-1.74-.509-.045-.723.761-1.433 1.62-1.612.619-.129 1.278-.086 1.918-.087 12.902-.003 25.803.004 38.705-.01.99 0 2.131.26 2.72-1.018-.68-.465-1.395-.257-2.06-.258-12.378-.013-24.754-.006-37.13-.006-.583 0-1.172.024-1.749-.04-.667-.073-.8-.411-.319-.92.65-.685 1.3-1.286 2.37-1.282 13.657.056 27.315.077 40.973.154.723.004 1.236-.23 1.749-.608 4.854-3.59 10.313-5.68 16.288-6.289 11.492-1.172 21.318 2.44 29.26 10.81zm-58.142 56.49c-6.683 2.435-13.38 2.533-20.078 0h20.078zm7.741-3.409c.218.653-.596.727-.981 1.009-.872.638-1.859.894-2.957.891-9.22-.022-18.44-.029-27.66-.001-1.238.003-2.283-.388-3.26-1.064-.308-.212-.892-.295-.72-.822.154-.481.688-.344 1.075-.345 3.326-.014 6.652-.013 9.979-.014h6.828c5.427 0 10.854-.004 16.281.011.494.001 1.22-.245 1.415.335zm42.718-38.985l-16.21 13.654-.111.079c-.154.094-.325.14-.496.14-.171 0-.342-.046-.496-.14l-.112-.08-16.209-13.653-.107.196c-.202.4-.332.85-.365 1.328l-.008.242v17.612l.004.187c.087 1.672 1.324 3.016 2.864 3.11l.172.005h28.514l.172-.005c1.54-.094 2.777-1.438 2.863-3.11l.005-.187V56.35l-.008-.242c-.039-.559-.21-1.076-.472-1.524zm-2.56-1.536H71.808l-.185.007c-.183.015-.361.051-.534.1l-.172.054L86.065 65.98l15.147-12.772-.171-.053c-.23-.066-.47-.108-.72-.108zm-43.86-20.145c1.556-.002 2.711.814 4.234 2.02H24.153c1.404-1.26 2.57-2.021 4.123-2.02 9.395.004 18.79.003 28.185 0zm-4.095-1.963l.014.487H32.362l-.003-.466c6.65-2.096 13.32-2.045 20.008-.02z" transform="translate(-616 -200) translate(616 200)"/>
            </g>
        </g>
    </g>
</svg>
